<mxfile host="65bd71144e" pages="1">
    <diagram id="d2ii8HHGaeJqe1fxGpcZ" name="var_1">
        <mxGraphModel dx="383" dy="619" grid="1" gridSize="10" guides="1" tooltips="1" connect="1" arrows="1" fold="1" page="1" pageScale="1" pageWidth="1169" pageHeight="827" math="0" shadow="0">
            <root>
                <mxCell id="0"/>
                <mxCell id="1" parent="0"/>
                <mxCell id="HxzilzkeXnBnJLQ9JSz_-1" value="Mitarbeiter" style="swimlane;fontStyle=1;align=center;verticalAlign=top;childLayout=stackLayout;horizontal=1;startSize=26;horizontalStack=0;resizeParent=1;resizeParentMax=0;resizeLast=0;collapsible=1;marginBottom=0;" parent="1" vertex="1">
                    <mxGeometry x="445" y="20" width="230" height="424" as="geometry"/>
                </mxCell>
                <mxCell id="HxzilzkeXnBnJLQ9JSz_-2" value="- familyName: String" style="text;strokeColor=none;fillColor=none;align=left;verticalAlign=top;spacingLeft=4;spacingRight=4;overflow=hidden;rotatable=0;points=[[0,0.5],[1,0.5]];portConstraint=eastwest;" parent="HxzilzkeXnBnJLQ9JSz_-1" vertex="1">
                    <mxGeometry y="26" width="230" height="26" as="geometry"/>
                </mxCell>
                <mxCell id="HxzilzkeXnBnJLQ9JSz_-6" value="- firstName: String" style="text;strokeColor=none;fillColor=none;align=left;verticalAlign=top;spacingLeft=4;spacingRight=4;overflow=hidden;rotatable=0;points=[[0,0.5],[1,0.5]];portConstraint=eastwest;" parent="HxzilzkeXnBnJLQ9JSz_-1" vertex="1">
                    <mxGeometry y="52" width="230" height="26" as="geometry"/>
                </mxCell>
                <mxCell id="HxzilzkeXnBnJLQ9JSz_-20" value="- birthYear: int" style="text;strokeColor=none;fillColor=none;align=left;verticalAlign=top;spacingLeft=4;spacingRight=4;overflow=hidden;rotatable=0;points=[[0,0.5],[1,0.5]];portConstraint=eastwest;" parent="HxzilzkeXnBnJLQ9JSz_-1" vertex="1">
                    <mxGeometry y="78" width="230" height="26" as="geometry"/>
                </mxCell>
                <mxCell id="HxzilzkeXnBnJLQ9JSz_-22" value="# workID &lt;&lt;final&gt;&gt;: String" style="text;strokeColor=none;fillColor=none;align=left;verticalAlign=top;spacingLeft=4;spacingRight=4;overflow=hidden;rotatable=0;points=[[0,0.5],[1,0.5]];portConstraint=eastwest;" parent="HxzilzkeXnBnJLQ9JSz_-1" vertex="1">
                    <mxGeometry y="104" width="230" height="26" as="geometry"/>
                </mxCell>
                <mxCell id="HxzilzkeXnBnJLQ9JSz_-21" value="# department: String" style="text;strokeColor=none;fillColor=none;align=left;verticalAlign=top;spacingLeft=4;spacingRight=4;overflow=hidden;rotatable=0;points=[[0,0.5],[1,0.5]];portConstraint=eastwest;" parent="HxzilzkeXnBnJLQ9JSz_-1" vertex="1">
                    <mxGeometry y="130" width="230" height="26" as="geometry"/>
                </mxCell>
                <mxCell id="HxzilzkeXnBnJLQ9JSz_-5" value="# role: String" style="text;strokeColor=none;fillColor=none;align=left;verticalAlign=top;spacingLeft=4;spacingRight=4;overflow=hidden;rotatable=0;points=[[0,0.5],[1,0.5]];portConstraint=eastwest;" parent="HxzilzkeXnBnJLQ9JSz_-1" vertex="1">
                    <mxGeometry y="156" width="230" height="26" as="geometry"/>
                </mxCell>
                <mxCell id="2" value="# hiredYear &lt;&lt;final&gt;&gt;: int" style="text;strokeColor=none;fillColor=none;align=left;verticalAlign=top;spacingLeft=4;spacingRight=4;overflow=hidden;rotatable=0;points=[[0,0.5],[1,0.5]];portConstraint=eastwest;" parent="HxzilzkeXnBnJLQ9JSz_-1" vertex="1">
                    <mxGeometry y="182" width="230" height="26" as="geometry"/>
                </mxCell>
                <mxCell id="HxzilzkeXnBnJLQ9JSz_-3" value="" style="line;strokeWidth=1;fillColor=none;align=left;verticalAlign=middle;spacingTop=-1;spacingLeft=3;spacingRight=3;rotatable=0;labelPosition=right;points=[];portConstraint=eastwest;" parent="HxzilzkeXnBnJLQ9JSz_-1" vertex="1">
                    <mxGeometry y="208" width="230" height="8" as="geometry"/>
                </mxCell>
                <mxCell id="HxzilzkeXnBnJLQ9JSz_-4" value="+ setFamilyName(name : String): void" style="text;strokeColor=none;fillColor=none;align=left;verticalAlign=top;spacingLeft=4;spacingRight=4;overflow=hidden;rotatable=0;points=[[0,0.5],[1,0.5]];portConstraint=eastwest;" parent="HxzilzkeXnBnJLQ9JSz_-1" vertex="1">
                    <mxGeometry y="216" width="230" height="26" as="geometry"/>
                </mxCell>
                <mxCell id="HxzilzkeXnBnJLQ9JSz_-33" value="+ getFamilyName(): String" style="text;strokeColor=none;fillColor=none;align=left;verticalAlign=top;spacingLeft=4;spacingRight=4;overflow=hidden;rotatable=0;points=[[0,0.5],[1,0.5]];portConstraint=eastwest;" parent="HxzilzkeXnBnJLQ9JSz_-1" vertex="1">
                    <mxGeometry y="242" width="230" height="26" as="geometry"/>
                </mxCell>
                <mxCell id="HxzilzkeXnBnJLQ9JSz_-37" value="+ getFirstName(): String" style="text;strokeColor=none;fillColor=none;align=left;verticalAlign=top;spacingLeft=4;spacingRight=4;overflow=hidden;rotatable=0;points=[[0,0.5],[1,0.5]];portConstraint=eastwest;" parent="HxzilzkeXnBnJLQ9JSz_-1" vertex="1">
                    <mxGeometry y="268" width="230" height="26" as="geometry"/>
                </mxCell>
                <mxCell id="HxzilzkeXnBnJLQ9JSz_-38" value="+ getBirthYear(): int" style="text;strokeColor=none;fillColor=none;align=left;verticalAlign=top;spacingLeft=4;spacingRight=4;overflow=hidden;rotatable=0;points=[[0,0.5],[1,0.5]];portConstraint=eastwest;" parent="HxzilzkeXnBnJLQ9JSz_-1" vertex="1">
                    <mxGeometry y="294" width="230" height="26" as="geometry"/>
                </mxCell>
                <mxCell id="HxzilzkeXnBnJLQ9JSz_-81" value="# hasLunch(): void" style="text;strokeColor=none;fillColor=none;align=left;verticalAlign=top;spacingLeft=4;spacingRight=4;overflow=hidden;rotatable=0;points=[[0,0.5],[1,0.5]];portConstraint=eastwest;" parent="HxzilzkeXnBnJLQ9JSz_-1" vertex="1">
                    <mxGeometry y="320" width="230" height="26" as="geometry"/>
                </mxCell>
                <mxCell id="HxzilzkeXnBnJLQ9JSz_-82" value="# startsWork(): void" style="text;strokeColor=none;fillColor=none;align=left;verticalAlign=top;spacingLeft=4;spacingRight=4;overflow=hidden;rotatable=0;points=[[0,0.5],[1,0.5]];portConstraint=eastwest;" parent="HxzilzkeXnBnJLQ9JSz_-1" vertex="1">
                    <mxGeometry y="346" width="230" height="26" as="geometry"/>
                </mxCell>
                <mxCell id="3" value="# getEmployedTime(): String" style="text;strokeColor=none;fillColor=none;align=left;verticalAlign=top;spacingLeft=4;spacingRight=4;overflow=hidden;rotatable=0;points=[[0,0.5],[1,0.5]];portConstraint=eastwest;" parent="HxzilzkeXnBnJLQ9JSz_-1" vertex="1">
                    <mxGeometry y="372" width="230" height="26" as="geometry"/>
                </mxCell>
                <mxCell id="9" value="# output(String): void" style="text;strokeColor=none;fillColor=none;align=left;verticalAlign=top;spacingLeft=4;spacingRight=4;overflow=hidden;rotatable=0;points=[[0,0.5],[1,0.5]];portConstraint=eastwest;" parent="HxzilzkeXnBnJLQ9JSz_-1" vertex="1">
                    <mxGeometry y="398" width="230" height="26" as="geometry"/>
                </mxCell>
                <mxCell id="95ybf5Jd7rPmQPyVANxa-5" value="MA_Accounting" style="swimlane;fontStyle=1;align=center;verticalAlign=top;childLayout=stackLayout;horizontal=1;startSize=26;horizontalStack=0;resizeParent=1;resizeParentMax=0;resizeLast=0;collapsible=1;marginBottom=0;" parent="1" vertex="1">
                    <mxGeometry x="280" y="600" width="170" height="60" as="geometry"/>
                </mxCell>
                <mxCell id="95ybf5Jd7rPmQPyVANxa-7" value="" style="line;strokeWidth=1;fillColor=none;align=left;verticalAlign=middle;spacingTop=-1;spacingLeft=3;spacingRight=3;rotatable=0;labelPosition=right;points=[];portConstraint=eastwest;" parent="95ybf5Jd7rPmQPyVANxa-5" vertex="1">
                    <mxGeometry y="26" width="170" height="8" as="geometry"/>
                </mxCell>
                <mxCell id="95ybf5Jd7rPmQPyVANxa-8" value="+ calculateTaxReturns(): void" style="text;strokeColor=none;fillColor=none;align=left;verticalAlign=top;spacingLeft=4;spacingRight=4;overflow=hidden;rotatable=0;points=[[0,0.5],[1,0.5]];portConstraint=eastwest;" parent="95ybf5Jd7rPmQPyVANxa-5" vertex="1">
                    <mxGeometry y="34" width="170" height="26" as="geometry"/>
                </mxCell>
                <mxCell id="95ybf5Jd7rPmQPyVANxa-9" value="MA_Advertising" style="swimlane;fontStyle=1;align=center;verticalAlign=top;childLayout=stackLayout;horizontal=1;startSize=26;horizontalStack=0;resizeParent=1;resizeParentMax=0;resizeLast=0;collapsible=1;marginBottom=0;" parent="1" vertex="1">
                    <mxGeometry x="480" y="600" width="160" height="60" as="geometry"/>
                </mxCell>
                <mxCell id="95ybf5Jd7rPmQPyVANxa-10" value="" style="line;strokeWidth=1;fillColor=none;align=left;verticalAlign=middle;spacingTop=-1;spacingLeft=3;spacingRight=3;rotatable=0;labelPosition=right;points=[];portConstraint=eastwest;" parent="95ybf5Jd7rPmQPyVANxa-9" vertex="1">
                    <mxGeometry y="26" width="160" height="8" as="geometry"/>
                </mxCell>
                <mxCell id="95ybf5Jd7rPmQPyVANxa-11" value="+ createAdCampaign(): void" style="text;strokeColor=none;fillColor=none;align=left;verticalAlign=top;spacingLeft=4;spacingRight=4;overflow=hidden;rotatable=0;points=[[0,0.5],[1,0.5]];portConstraint=eastwest;" parent="95ybf5Jd7rPmQPyVANxa-9" vertex="1">
                    <mxGeometry y="34" width="160" height="26" as="geometry"/>
                </mxCell>
                <mxCell id="95ybf5Jd7rPmQPyVANxa-12" value="MA_Production" style="swimlane;fontStyle=1;align=center;verticalAlign=top;childLayout=stackLayout;horizontal=1;startSize=26;horizontalStack=0;resizeParent=1;resizeParentMax=0;resizeLast=0;collapsible=1;marginBottom=0;" parent="1" vertex="1">
                    <mxGeometry x="680" y="600" width="160" height="60" as="geometry"/>
                </mxCell>
                <mxCell id="95ybf5Jd7rPmQPyVANxa-13" value="" style="line;strokeWidth=1;fillColor=none;align=left;verticalAlign=middle;spacingTop=-1;spacingLeft=3;spacingRight=3;rotatable=0;labelPosition=right;points=[];portConstraint=eastwest;" parent="95ybf5Jd7rPmQPyVANxa-12" vertex="1">
                    <mxGeometry y="26" width="160" height="8" as="geometry"/>
                </mxCell>
                <mxCell id="95ybf5Jd7rPmQPyVANxa-14" value="+ assembleProducts(): void&#10;" style="text;strokeColor=none;fillColor=none;align=left;verticalAlign=top;spacingLeft=4;spacingRight=4;overflow=hidden;rotatable=0;points=[[0,0.5],[1,0.5]];portConstraint=eastwest;" parent="95ybf5Jd7rPmQPyVANxa-12" vertex="1">
                    <mxGeometry y="34" width="160" height="26" as="geometry"/>
                </mxCell>
                <mxCell id="95ybf5Jd7rPmQPyVANxa-15" value="Extends" style="endArrow=block;endSize=16;endFill=0;html=1;exitX=0.448;exitY=0.001;exitDx=0;exitDy=0;exitPerimeter=0;" parent="1" source="95ybf5Jd7rPmQPyVANxa-5" edge="1">
                    <mxGeometry width="160" relative="1" as="geometry">
                        <mxPoint x="350" y="600" as="sourcePoint"/>
                        <mxPoint x="470" y="450" as="targetPoint"/>
                    </mxGeometry>
                </mxCell>
                <mxCell id="95ybf5Jd7rPmQPyVANxa-16" value="Extends" style="endArrow=block;endSize=16;endFill=0;html=1;exitX=0.5;exitY=0;exitDx=0;exitDy=0;" parent="1" source="95ybf5Jd7rPmQPyVANxa-12" edge="1">
                    <mxGeometry width="160" relative="1" as="geometry">
                        <mxPoint x="329.5" y="735.5" as="sourcePoint"/>
                        <mxPoint x="660" y="450" as="targetPoint"/>
                    </mxGeometry>
                </mxCell>
                <mxCell id="95ybf5Jd7rPmQPyVANxa-18" value="Extends" style="endArrow=block;endSize=16;endFill=0;html=1;exitX=0.5;exitY=0;exitDx=0;exitDy=0;" parent="1" source="95ybf5Jd7rPmQPyVANxa-9" edge="1">
                    <mxGeometry width="160" relative="1" as="geometry">
                        <mxPoint x="280" y="690" as="sourcePoint"/>
                        <mxPoint x="560" y="450" as="targetPoint"/>
                    </mxGeometry>
                </mxCell>
                <mxCell id="4" value="App" style="swimlane;fontStyle=1;align=center;verticalAlign=top;childLayout=stackLayout;horizontal=1;startSize=26;horizontalStack=0;resizeParent=1;resizeParentMax=0;resizeLast=0;collapsible=1;marginBottom=0;" parent="1" vertex="1">
                    <mxGeometry x="160" y="40" width="160" height="90" as="geometry"/>
                </mxCell>
                <mxCell id="6" value="" style="line;strokeWidth=1;fillColor=none;align=left;verticalAlign=middle;spacingTop=-1;spacingLeft=3;spacingRight=3;rotatable=0;labelPosition=right;points=[];portConstraint=eastwest;strokeColor=inherit;" parent="4" vertex="1">
                    <mxGeometry y="26" width="160" height="8" as="geometry"/>
                </mxCell>
                <mxCell id="7" value="- output(String): void" style="text;strokeColor=none;fillColor=none;align=left;verticalAlign=top;spacingLeft=4;spacingRight=4;overflow=hidden;rotatable=0;points=[[0,0.5],[1,0.5]];portConstraint=eastwest;" parent="4" vertex="1">
                    <mxGeometry y="34" width="160" height="26" as="geometry"/>
                </mxCell>
                <mxCell id="8" value="- getInfos(Mitarbeiter): void" style="text;strokeColor=none;fillColor=none;align=left;verticalAlign=top;spacingLeft=4;spacingRight=4;overflow=hidden;rotatable=0;points=[[0,0.5],[1,0.5]];portConstraint=eastwest;" parent="4" vertex="1">
                    <mxGeometry y="60" width="160" height="30" as="geometry"/>
                </mxCell>
            </root>
        </mxGraphModel>
    </diagram>
    <diagram name="var_2" id="SBm1nnpKEaI4cgmXUNG1">
        <mxGraphModel dx="530" dy="619" grid="1" gridSize="10" guides="1" tooltips="1" connect="1" arrows="1" fold="1" page="1" pageScale="1" pageWidth="1169" pageHeight="827" math="0" shadow="0">
            <root>
                <mxCell id="4bDgcFtXZ_J_4pV69vJN-0"/>
                <mxCell id="4bDgcFtXZ_J_4pV69vJN-1" parent="4bDgcFtXZ_J_4pV69vJN-0"/>
                <mxCell id="4bDgcFtXZ_J_4pV69vJN-2" value="Mitarbeiter" style="swimlane;fontStyle=1;align=center;verticalAlign=top;childLayout=stackLayout;horizontal=1;startSize=26;horizontalStack=0;resizeParent=1;resizeParentMax=0;resizeLast=0;collapsible=1;marginBottom=0;" parent="4bDgcFtXZ_J_4pV69vJN-1" vertex="1">
                    <mxGeometry x="485" y="340" width="230" height="242" as="geometry"/>
                </mxCell>
                <mxCell id="4bDgcFtXZ_J_4pV69vJN-6" value="# workID: String" style="text;strokeColor=none;fillColor=none;align=left;verticalAlign=top;spacingLeft=4;spacingRight=4;overflow=hidden;rotatable=0;points=[[0,0.5],[1,0.5]];portConstraint=eastwest;" parent="4bDgcFtXZ_J_4pV69vJN-2" vertex="1">
                    <mxGeometry y="26" width="230" height="26" as="geometry"/>
                </mxCell>
                <mxCell id="4bDgcFtXZ_J_4pV69vJN-7" value="# department: String" style="text;strokeColor=none;fillColor=none;align=left;verticalAlign=top;spacingLeft=4;spacingRight=4;overflow=hidden;rotatable=0;points=[[0,0.5],[1,0.5]];portConstraint=eastwest;" parent="4bDgcFtXZ_J_4pV69vJN-2" vertex="1">
                    <mxGeometry y="52" width="230" height="26" as="geometry"/>
                </mxCell>
                <mxCell id="4bDgcFtXZ_J_4pV69vJN-8" value="# role: String" style="text;strokeColor=none;fillColor=none;align=left;verticalAlign=top;spacingLeft=4;spacingRight=4;overflow=hidden;rotatable=0;points=[[0,0.5],[1,0.5]];portConstraint=eastwest;" parent="4bDgcFtXZ_J_4pV69vJN-2" vertex="1">
                    <mxGeometry y="78" width="230" height="26" as="geometry"/>
                </mxCell>
                <mxCell id="4bDgcFtXZ_J_4pV69vJN-9" value="# hiredYear: int" style="text;strokeColor=none;fillColor=none;align=left;verticalAlign=top;spacingLeft=4;spacingRight=4;overflow=hidden;rotatable=0;points=[[0,0.5],[1,0.5]];portConstraint=eastwest;" parent="4bDgcFtXZ_J_4pV69vJN-2" vertex="1">
                    <mxGeometry y="104" width="230" height="26" as="geometry"/>
                </mxCell>
                <mxCell id="4bDgcFtXZ_J_4pV69vJN-10" value="" style="line;strokeWidth=1;fillColor=none;align=left;verticalAlign=middle;spacingTop=-1;spacingLeft=3;spacingRight=3;rotatable=0;labelPosition=right;points=[];portConstraint=eastwest;" parent="4bDgcFtXZ_J_4pV69vJN-2" vertex="1">
                    <mxGeometry y="130" width="230" height="8" as="geometry"/>
                </mxCell>
                <mxCell id="4bDgcFtXZ_J_4pV69vJN-15" value="# hasLunch(): String" style="text;strokeColor=none;fillColor=none;align=left;verticalAlign=top;spacingLeft=4;spacingRight=4;overflow=hidden;rotatable=0;points=[[0,0.5],[1,0.5]];portConstraint=eastwest;" parent="4bDgcFtXZ_J_4pV69vJN-2" vertex="1">
                    <mxGeometry y="138" width="230" height="26" as="geometry"/>
                </mxCell>
                <mxCell id="4bDgcFtXZ_J_4pV69vJN-16" value="# startsWork(): String" style="text;strokeColor=none;fillColor=none;align=left;verticalAlign=top;spacingLeft=4;spacingRight=4;overflow=hidden;rotatable=0;points=[[0,0.5],[1,0.5]];portConstraint=eastwest;" parent="4bDgcFtXZ_J_4pV69vJN-2" vertex="1">
                    <mxGeometry y="164" width="230" height="26" as="geometry"/>
                </mxCell>
                <mxCell id="4bDgcFtXZ_J_4pV69vJN-17" value="# getEmployedTime(): String" style="text;strokeColor=none;fillColor=none;align=left;verticalAlign=top;spacingLeft=4;spacingRight=4;overflow=hidden;rotatable=0;points=[[0,0.5],[1,0.5]];portConstraint=eastwest;" parent="4bDgcFtXZ_J_4pV69vJN-2" vertex="1">
                    <mxGeometry y="190" width="230" height="26" as="geometry"/>
                </mxCell>
                <mxCell id="t7FV4wJpKu1JtyC0Bjaz-1" value="# doYourJob(): String" style="text;strokeColor=none;fillColor=none;align=left;verticalAlign=top;spacingLeft=4;spacingRight=4;overflow=hidden;rotatable=0;points=[[0,0.5],[1,0.5]];portConstraint=eastwest;" parent="4bDgcFtXZ_J_4pV69vJN-2" vertex="1">
                    <mxGeometry y="216" width="230" height="26" as="geometry"/>
                </mxCell>
                <mxCell id="4bDgcFtXZ_J_4pV69vJN-19" value="MA_Accounting" style="swimlane;fontStyle=1;align=center;verticalAlign=top;childLayout=stackLayout;horizontal=1;startSize=26;horizontalStack=0;resizeParent=1;resizeParentMax=0;resizeLast=0;collapsible=1;marginBottom=0;" parent="4bDgcFtXZ_J_4pV69vJN-1" vertex="1">
                    <mxGeometry x="320" y="640" width="170" height="60" as="geometry"/>
                </mxCell>
                <mxCell id="4bDgcFtXZ_J_4pV69vJN-20" value="" style="line;strokeWidth=1;fillColor=none;align=left;verticalAlign=middle;spacingTop=-1;spacingLeft=3;spacingRight=3;rotatable=0;labelPosition=right;points=[];portConstraint=eastwest;" parent="4bDgcFtXZ_J_4pV69vJN-19" vertex="1">
                    <mxGeometry y="26" width="170" height="8" as="geometry"/>
                </mxCell>
                <mxCell id="4bDgcFtXZ_J_4pV69vJN-21" value="# doYourJob(): String" style="text;strokeColor=none;fillColor=none;align=left;verticalAlign=top;spacingLeft=4;spacingRight=4;overflow=hidden;rotatable=0;points=[[0,0.5],[1,0.5]];portConstraint=eastwest;" parent="4bDgcFtXZ_J_4pV69vJN-19" vertex="1">
                    <mxGeometry y="34" width="170" height="26" as="geometry"/>
                </mxCell>
                <mxCell id="4bDgcFtXZ_J_4pV69vJN-22" value="MA_Advertising" style="swimlane;fontStyle=1;align=center;verticalAlign=top;childLayout=stackLayout;horizontal=1;startSize=26;horizontalStack=0;resizeParent=1;resizeParentMax=0;resizeLast=0;collapsible=1;marginBottom=0;" parent="4bDgcFtXZ_J_4pV69vJN-1" vertex="1">
                    <mxGeometry x="520" y="640" width="160" height="60" as="geometry"/>
                </mxCell>
                <mxCell id="4bDgcFtXZ_J_4pV69vJN-23" value="" style="line;strokeWidth=1;fillColor=none;align=left;verticalAlign=middle;spacingTop=-1;spacingLeft=3;spacingRight=3;rotatable=0;labelPosition=right;points=[];portConstraint=eastwest;" parent="4bDgcFtXZ_J_4pV69vJN-22" vertex="1">
                    <mxGeometry y="26" width="160" height="8" as="geometry"/>
                </mxCell>
                <mxCell id="4bDgcFtXZ_J_4pV69vJN-24" value="# doYourJob(): String" style="text;strokeColor=none;fillColor=none;align=left;verticalAlign=top;spacingLeft=4;spacingRight=4;overflow=hidden;rotatable=0;points=[[0,0.5],[1,0.5]];portConstraint=eastwest;" parent="4bDgcFtXZ_J_4pV69vJN-22" vertex="1">
                    <mxGeometry y="34" width="160" height="26" as="geometry"/>
                </mxCell>
                <mxCell id="4bDgcFtXZ_J_4pV69vJN-25" value="MA_Production" style="swimlane;fontStyle=1;align=center;verticalAlign=top;childLayout=stackLayout;horizontal=1;startSize=26;horizontalStack=0;resizeParent=1;resizeParentMax=0;resizeLast=0;collapsible=1;marginBottom=0;" parent="4bDgcFtXZ_J_4pV69vJN-1" vertex="1">
                    <mxGeometry x="710" y="640" width="160" height="60" as="geometry"/>
                </mxCell>
                <mxCell id="4bDgcFtXZ_J_4pV69vJN-26" value="" style="line;strokeWidth=1;fillColor=none;align=left;verticalAlign=middle;spacingTop=-1;spacingLeft=3;spacingRight=3;rotatable=0;labelPosition=right;points=[];portConstraint=eastwest;" parent="4bDgcFtXZ_J_4pV69vJN-25" vertex="1">
                    <mxGeometry y="26" width="160" height="8" as="geometry"/>
                </mxCell>
                <mxCell id="4bDgcFtXZ_J_4pV69vJN-27" value="# doYourJob(): String" style="text;strokeColor=none;fillColor=none;align=left;verticalAlign=top;spacingLeft=4;spacingRight=4;overflow=hidden;rotatable=0;points=[[0,0.5],[1,0.5]];portConstraint=eastwest;" parent="4bDgcFtXZ_J_4pV69vJN-25" vertex="1">
                    <mxGeometry y="34" width="160" height="26" as="geometry"/>
                </mxCell>
                <mxCell id="4bDgcFtXZ_J_4pV69vJN-28" value="Extends" style="endArrow=block;endSize=16;endFill=0;html=1;exitX=0.448;exitY=0.001;exitDx=0;exitDy=0;exitPerimeter=0;entryX=-0.015;entryY=1.116;entryDx=0;entryDy=0;entryPerimeter=0;" parent="4bDgcFtXZ_J_4pV69vJN-1" source="4bDgcFtXZ_J_4pV69vJN-19" target="t7FV4wJpKu1JtyC0Bjaz-1" edge="1">
                    <mxGeometry width="160" relative="1" as="geometry">
                        <mxPoint x="390" y="710" as="sourcePoint"/>
                        <mxPoint x="510" y="560" as="targetPoint"/>
                    </mxGeometry>
                </mxCell>
                <mxCell id="4bDgcFtXZ_J_4pV69vJN-29" value="Extends" style="endArrow=block;endSize=16;endFill=0;html=1;exitX=0.5;exitY=0;exitDx=0;exitDy=0;entryX=1.01;entryY=1.18;entryDx=0;entryDy=0;entryPerimeter=0;" parent="4bDgcFtXZ_J_4pV69vJN-1" source="4bDgcFtXZ_J_4pV69vJN-25" target="t7FV4wJpKu1JtyC0Bjaz-1" edge="1">
                    <mxGeometry width="160" relative="1" as="geometry">
                        <mxPoint x="369.5" y="845.5" as="sourcePoint"/>
                        <mxPoint x="820" y="560" as="targetPoint"/>
                    </mxGeometry>
                </mxCell>
                <mxCell id="4bDgcFtXZ_J_4pV69vJN-30" value="Extends" style="endArrow=block;endSize=16;endFill=0;html=1;exitX=0.5;exitY=0;exitDx=0;exitDy=0;" parent="4bDgcFtXZ_J_4pV69vJN-1" source="4bDgcFtXZ_J_4pV69vJN-22" edge="1">
                    <mxGeometry x="0.0025" width="160" relative="1" as="geometry">
                        <mxPoint x="320" y="800" as="sourcePoint"/>
                        <mxPoint x="600" y="590" as="targetPoint"/>
                        <mxPoint as="offset"/>
                    </mxGeometry>
                </mxCell>
                <mxCell id="4bDgcFtXZ_J_4pV69vJN-31" value="App" style="swimlane;fontStyle=1;align=center;verticalAlign=top;childLayout=stackLayout;horizontal=1;startSize=26;horizontalStack=0;resizeParent=1;resizeParentMax=0;resizeLast=0;collapsible=1;marginBottom=0;" parent="4bDgcFtXZ_J_4pV69vJN-1" vertex="1">
                    <mxGeometry x="520" y="737" width="160" height="90" as="geometry"/>
                </mxCell>
                <mxCell id="4bDgcFtXZ_J_4pV69vJN-32" value="" style="line;strokeWidth=1;fillColor=none;align=left;verticalAlign=middle;spacingTop=-1;spacingLeft=3;spacingRight=3;rotatable=0;labelPosition=right;points=[];portConstraint=eastwest;strokeColor=inherit;" parent="4bDgcFtXZ_J_4pV69vJN-31" vertex="1">
                    <mxGeometry y="26" width="160" height="8" as="geometry"/>
                </mxCell>
                <mxCell id="4bDgcFtXZ_J_4pV69vJN-33" value="- output(String): void" style="text;strokeColor=none;fillColor=none;align=left;verticalAlign=top;spacingLeft=4;spacingRight=4;overflow=hidden;rotatable=0;points=[[0,0.5],[1,0.5]];portConstraint=eastwest;" parent="4bDgcFtXZ_J_4pV69vJN-31" vertex="1">
                    <mxGeometry y="34" width="160" height="26" as="geometry"/>
                </mxCell>
                <mxCell id="4bDgcFtXZ_J_4pV69vJN-34" value="- getInfos(Mitarbeiter): void" style="text;strokeColor=none;fillColor=none;align=left;verticalAlign=top;spacingLeft=4;spacingRight=4;overflow=hidden;rotatable=0;points=[[0,0.5],[1,0.5]];portConstraint=eastwest;" parent="4bDgcFtXZ_J_4pV69vJN-31" vertex="1">
                    <mxGeometry y="60" width="160" height="30" as="geometry"/>
                </mxCell>
                <mxCell id="JXeGcWgigXJSRNPDjfdU-0" value="Person" style="swimlane;fontStyle=1;align=center;verticalAlign=top;childLayout=stackLayout;horizontal=1;startSize=26;horizontalStack=0;resizeParent=1;resizeParentMax=0;resizeLast=0;collapsible=1;marginBottom=0;" parent="4bDgcFtXZ_J_4pV69vJN-1" vertex="1">
                    <mxGeometry x="485" y="60" width="230" height="216" as="geometry"/>
                </mxCell>
                <mxCell id="JXeGcWgigXJSRNPDjfdU-1" value="- familyName: String" style="text;strokeColor=none;fillColor=none;align=left;verticalAlign=top;spacingLeft=4;spacingRight=4;overflow=hidden;rotatable=0;points=[[0,0.5],[1,0.5]];portConstraint=eastwest;" parent="JXeGcWgigXJSRNPDjfdU-0" vertex="1">
                    <mxGeometry y="26" width="230" height="26" as="geometry"/>
                </mxCell>
                <mxCell id="JXeGcWgigXJSRNPDjfdU-2" value="- firstName: String" style="text;strokeColor=none;fillColor=none;align=left;verticalAlign=top;spacingLeft=4;spacingRight=4;overflow=hidden;rotatable=0;points=[[0,0.5],[1,0.5]];portConstraint=eastwest;" parent="JXeGcWgigXJSRNPDjfdU-0" vertex="1">
                    <mxGeometry y="52" width="230" height="26" as="geometry"/>
                </mxCell>
                <mxCell id="JXeGcWgigXJSRNPDjfdU-3" value="- birthYear: int" style="text;strokeColor=none;fillColor=none;align=left;verticalAlign=top;spacingLeft=4;spacingRight=4;overflow=hidden;rotatable=0;points=[[0,0.5],[1,0.5]];portConstraint=eastwest;" parent="JXeGcWgigXJSRNPDjfdU-0" vertex="1">
                    <mxGeometry y="78" width="230" height="26" as="geometry"/>
                </mxCell>
                <mxCell id="JXeGcWgigXJSRNPDjfdU-8" value="" style="line;strokeWidth=1;fillColor=none;align=left;verticalAlign=middle;spacingTop=-1;spacingLeft=3;spacingRight=3;rotatable=0;labelPosition=right;points=[];portConstraint=eastwest;" parent="JXeGcWgigXJSRNPDjfdU-0" vertex="1">
                    <mxGeometry y="104" width="230" height="8" as="geometry"/>
                </mxCell>
                <mxCell id="JXeGcWgigXJSRNPDjfdU-9" value="+ setFamilyName(name : String): void" style="text;strokeColor=none;fillColor=none;align=left;verticalAlign=top;spacingLeft=4;spacingRight=4;overflow=hidden;rotatable=0;points=[[0,0.5],[1,0.5]];portConstraint=eastwest;" parent="JXeGcWgigXJSRNPDjfdU-0" vertex="1">
                    <mxGeometry y="112" width="230" height="26" as="geometry"/>
                </mxCell>
                <mxCell id="JXeGcWgigXJSRNPDjfdU-10" value="+ getFamilyName(): String" style="text;strokeColor=none;fillColor=none;align=left;verticalAlign=top;spacingLeft=4;spacingRight=4;overflow=hidden;rotatable=0;points=[[0,0.5],[1,0.5]];portConstraint=eastwest;" parent="JXeGcWgigXJSRNPDjfdU-0" vertex="1">
                    <mxGeometry y="138" width="230" height="26" as="geometry"/>
                </mxCell>
                <mxCell id="JXeGcWgigXJSRNPDjfdU-11" value="+ getFirstName(): String" style="text;strokeColor=none;fillColor=none;align=left;verticalAlign=top;spacingLeft=4;spacingRight=4;overflow=hidden;rotatable=0;points=[[0,0.5],[1,0.5]];portConstraint=eastwest;" parent="JXeGcWgigXJSRNPDjfdU-0" vertex="1">
                    <mxGeometry y="164" width="230" height="26" as="geometry"/>
                </mxCell>
                <mxCell id="JXeGcWgigXJSRNPDjfdU-12" value="+ getBirthYear(): int" style="text;strokeColor=none;fillColor=none;align=left;verticalAlign=top;spacingLeft=4;spacingRight=4;overflow=hidden;rotatable=0;points=[[0,0.5],[1,0.5]];portConstraint=eastwest;" parent="JXeGcWgigXJSRNPDjfdU-0" vertex="1">
                    <mxGeometry y="190" width="230" height="26" as="geometry"/>
                </mxCell>
                <mxCell id="JXeGcWgigXJSRNPDjfdU-17" value="Extends" style="endArrow=block;endSize=16;endFill=0;html=1;exitX=0.5;exitY=0;exitDx=0;exitDy=0;" parent="4bDgcFtXZ_J_4pV69vJN-1" source="4bDgcFtXZ_J_4pV69vJN-2" target="JXeGcWgigXJSRNPDjfdU-12" edge="1">
                    <mxGeometry x="0.0025" width="160" relative="1" as="geometry">
                        <mxPoint x="830" y="324" as="sourcePoint"/>
                        <mxPoint x="830" y="240" as="targetPoint"/>
                        <mxPoint as="offset"/>
                    </mxGeometry>
                </mxCell>
                <mxCell id="BRuZHRrfaAWjbls_x6ng-0" value="Use" style="endArrow=open;endSize=12;dashed=1;html=1;exitX=-0.022;exitY=0.827;exitDx=0;exitDy=0;exitPerimeter=0;entryX=0.465;entryY=1;entryDx=0;entryDy=0;entryPerimeter=0;" edge="1" parent="4bDgcFtXZ_J_4pV69vJN-1" source="4bDgcFtXZ_J_4pV69vJN-33" target="4bDgcFtXZ_J_4pV69vJN-21">
                    <mxGeometry width="160" relative="1" as="geometry">
                        <mxPoint x="430" y="570" as="sourcePoint"/>
                        <mxPoint x="590" y="570" as="targetPoint"/>
                    </mxGeometry>
                </mxCell>
                <mxCell id="BRuZHRrfaAWjbls_x6ng-1" value="Use" style="endArrow=open;endSize=12;dashed=1;html=1;exitX=0.5;exitY=0;exitDx=0;exitDy=0;entryX=0.51;entryY=1.097;entryDx=0;entryDy=0;entryPerimeter=0;" edge="1" parent="4bDgcFtXZ_J_4pV69vJN-1" source="4bDgcFtXZ_J_4pV69vJN-31" target="4bDgcFtXZ_J_4pV69vJN-24">
                    <mxGeometry width="160" relative="1" as="geometry">
                        <mxPoint x="526.48" y="802.502" as="sourcePoint"/>
                        <mxPoint x="409.04999999999995" y="710" as="targetPoint"/>
                    </mxGeometry>
                </mxCell>
                <mxCell id="BRuZHRrfaAWjbls_x6ng-2" value="Use" style="endArrow=open;endSize=12;dashed=1;html=1;exitX=1;exitY=0.5;exitDx=0;exitDy=0;entryX=0.494;entryY=1.064;entryDx=0;entryDy=0;entryPerimeter=0;" edge="1" parent="4bDgcFtXZ_J_4pV69vJN-1" source="4bDgcFtXZ_J_4pV69vJN-33" target="4bDgcFtXZ_J_4pV69vJN-27">
                    <mxGeometry width="160" relative="1" as="geometry">
                        <mxPoint x="536.48" y="812.502" as="sourcePoint"/>
                        <mxPoint x="419.04999999999995" y="720" as="targetPoint"/>
                    </mxGeometry>
                </mxCell>
                <mxCell id="BRuZHRrfaAWjbls_x6ng-3" value="Use" style="endArrow=open;endSize=12;dashed=1;html=1;exitX=0;exitY=0;exitDx=0;exitDy=0;entryX=0.097;entryY=1.02;entryDx=0;entryDy=0;entryPerimeter=0;" edge="1" parent="4bDgcFtXZ_J_4pV69vJN-1" source="4bDgcFtXZ_J_4pV69vJN-31" target="t7FV4wJpKu1JtyC0Bjaz-1">
                    <mxGeometry width="160" relative="1" as="geometry">
                        <mxPoint x="546.48" y="822.502" as="sourcePoint"/>
                        <mxPoint x="429.04999999999995" y="730" as="targetPoint"/>
                    </mxGeometry>
                </mxCell>
            </root>
        </mxGraphModel>
    </diagram>
</mxfile>